<svg width="44" height="54" viewBox="0 0 44 54" fill="none" xmlns="http://www.w3.org/2000/svg">
<path d="M43.4629 21.7169C43.4629 25.3488 42.5802 28.7726 41.0197 31.7811C37.427 38.7077 30.2413 43.4337 21.9629 43.4337C13.6845 43.4337 6.49883 38.7077 2.90607 31.7811C1.34557 28.7726 0.462891 25.3488 0.462891 21.7169C0.462891 9.72297 10.0888 0 21.9629 0C33.837 0 43.4629 9.72297 43.4629 21.7169Z" fill="white"/>
<path d="M33.1264 22.2388C33.0743 22.2158 33.0198 22.2043 32.9634 22.2043C32.775 22.2043 32.6235 22.3327 32.5671 22.3879C32.3369 22.6139 31.8691 23.0926 31.2777 23.6985C29.6247 25.3927 27.1271 27.9521 26.3279 28.5514C24.9282 29.6014 23.497 30.1116 21.9519 30.1116C21.5265 30.111 21.0879 30.0734 20.6474 29.9995C19.3379 29.7796 18.1606 29.1906 17.1493 28.2496C16.5681 27.7086 12.3694 23.5445 11.6655 22.8464L11.599 22.7805C12.0056 22.3624 16.0647 18.1906 17.1663 17.243C18.5023 16.0929 20.105 15.4646 21.8004 15.4252C23.2692 15.3906 25.0143 16.0456 25.948 16.6916C26.4964 17.0709 26.8666 17.4041 27.315 17.9216L27.3477 17.9598L28.1481 17.1654L28.1172 17.1321C26.5175 15.3955 24.3265 14.4017 21.947 14.3339C21.5847 14.3236 21.2054 14.3581 20.8903 14.3914C19.6961 14.5199 18.5369 14.9368 17.4462 15.63C16.7365 16.0808 15.3069 17.4336 15.1804 17.5533L15.1716 17.5617C14.0972 18.5814 11.3281 21.2542 10.4088 22.1416L10.2145 22.3291L10.2 22.3436C10.1163 22.4133 10.0569 22.5085 10.0339 22.6127L10 22.652L10.0242 22.6805L10.0236 22.6823L10.0229 22.6949C10.0224 22.7033 10.0218 22.7116 10.0218 22.7205C10.0224 22.8653 10.0866 23.0011 10.1957 23.0908C10.2345 23.1277 14.5408 27.2819 15.9647 28.7083C17.3693 30.114 19.0604 30.9405 20.9903 31.1647C21.2902 31.1999 21.5968 31.2174 21.901 31.2174C22.4797 31.2174 23.0626 31.1544 23.6333 31.0296C25.1639 30.6957 26.5509 29.9214 27.8736 28.6628C29.2878 27.3165 31.5425 24.8552 32.1079 24.2347C32.0848 24.3638 32.08 24.5328 32.1642 24.6589C32.2393 24.7704 32.3696 24.8279 32.5556 24.8303C32.7701 24.8303 32.9313 24.6698 32.9864 24.4032L33.3754 22.7484C33.4227 22.5218 33.327 22.3267 33.1264 22.2388Z" fill="#2E3447"/>
<path d="M21.9092 24.4476C21.5438 24.4476 20.7707 24.0962 20.4386 23.8241C20.1199 23.5627 19.3165 22.946 19.0976 22.778L19.0892 22.7716L19.4587 22.4701C19.9163 22.0966 20.5915 21.5455 20.6204 21.5228C21.0706 21.1738 21.5166 20.989 21.9092 20.989C22.297 20.989 22.5782 21.0404 22.952 21.3119C22.9908 21.3404 23.2029 21.5185 23.3434 21.6367L23.4822 21.753L23.5137 21.7785L23.544 21.7506C23.6651 21.6386 24.0659 21.3014 24.2294 21.164C24.272 21.1281 24.2985 21.1058 24.2996 21.1047L24.3432 21.0683L24.2996 21.0326C24.239 20.9829 24.1802 20.9332 24.1215 20.8835L24.1104 20.8742C23.9254 20.7189 23.7502 20.5717 23.5458 20.4315C23.155 20.1631 22.5539 19.8431 21.9092 19.8431C21.3324 19.8431 20.664 20.097 20.166 20.5048C19.8448 20.7684 18.3639 22.0724 17.9174 22.4656L17.8931 22.4874C17.8016 22.5625 17.7441 22.6728 17.7356 22.791L17.7344 22.817C17.7344 22.9497 17.7919 23.0733 17.8925 23.1551L17.9137 23.1733C18.3803 23.5702 19.9187 24.8748 20.1193 24.9959L20.1829 25.0347C20.558 25.2644 21.1251 25.6116 21.9092 25.6116C22.5606 25.6116 23.2531 25.2813 24.0263 24.6027C24.5365 24.1543 27.5928 20.935 28.2478 20.2437L28.229 20.3206C28.2012 20.4327 28.2199 20.5491 28.2811 20.6478C28.3417 20.746 28.4381 20.815 28.5508 20.8423C28.5841 20.8502 28.6186 20.8538 28.6526 20.8538C28.8549 20.8538 29.0294 20.7175 29.0767 20.5224L29.5003 18.7834C29.5457 18.5956 29.4591 18.3986 29.2894 18.3047C29.1864 18.2477 29.0622 18.2326 28.9404 18.272L28.9095 18.2841C28.8543 18.3065 28.8071 18.3374 28.7677 18.3768C28.2526 18.8975 24.8788 22.2203 23.7219 23.3598L23.3398 23.7362C22.6727 24.3924 22.2516 24.4476 21.9092 24.4476Z" fill="#2E3447"/>
<path d="M21.791 27.1894C22.8023 27.1894 24.0444 26.661 25.1133 25.7763C25.8198 25.1916 26.0143 24.988 27.5291 23.3981C28.2186 22.674 29.1639 21.6827 30.5515 20.2406C30.6908 20.0903 30.9326 20.0491 31.1144 20.1473C31.3016 20.2479 31.3967 20.463 31.3464 20.6696L30.9277 22.3953C30.8762 22.6049 30.6902 22.7509 30.4745 22.7509C30.4375 22.7509 30.4 22.7467 30.3636 22.7376C30.2424 22.7079 30.14 22.6328 30.0752 22.5262C30.0298 22.4498 30.0425 22.2868 30.0637 22.1572C29.4929 22.8043 26.9807 25.6394 25.8707 26.6525C25.0224 27.4269 23.4464 28.3309 21.7952 28.3309H21.7668C20.5707 28.3231 19.3806 27.8892 18.3263 27.0761C17.8561 26.7137 16.3655 25.3643 14.1296 23.2775C14.0678 23.2199 14.0321 23.1866 14.0284 23.183C13.9218 23.0957 13.8594 22.9648 13.8594 22.8249C13.8588 22.6855 13.9212 22.5534 14.0303 22.4625L14.0557 22.4389C14.8028 21.7427 17.3029 19.4093 18.1148 18.6197C18.9068 17.8508 19.8726 17.3746 20.9869 17.2049C21.2989 17.157 21.608 17.1328 21.9055 17.1328C23.5693 17.1328 24.9969 17.7587 26.1476 18.9918L26.1785 19.0257L25.3562 19.8395L25.3235 19.7971C24.8109 19.1299 24.0456 18.6513 23.0495 18.3743C22.6102 18.2526 22.1751 18.1907 21.7577 18.1907C20.793 18.1907 19.8938 18.5161 19.0855 19.1578C18.8212 19.3678 15.8875 22.156 15.2935 22.7205C15.2653 22.7474 15.2423 22.7692 15.2252 22.7855C15.5578 23.1042 18.11 25.5449 18.8662 26.1151C19.6957 26.7404 20.8887 27.1821 21.7679 27.1894H21.791Z" fill="#2E3447"/>
<path fill-rule="evenodd" clip-rule="evenodd" d="M21.9629 2.96139C11.708 2.96139 3.39471 11.3585 3.39471 21.7169C3.39471 24.8588 4.15723 27.8121 5.50305 30.4068C8.60976 36.3963 14.8175 40.4723 21.9629 40.4723C29.1083 40.4723 35.316 36.3963 38.4227 30.4068C39.7685 27.8121 40.5311 24.8588 40.5311 21.7169C40.5311 11.3585 32.2178 2.96139 21.9629 2.96139ZM41.0197 31.7811C42.5802 28.7726 43.4629 25.3488 43.4629 21.7169C43.4629 9.72297 33.837 0 21.9629 0C10.0888 0 0.462891 9.72297 0.462891 21.7169C0.462891 25.3488 1.34557 28.7726 2.90607 31.7811C6.49883 38.7077 21.9629 53.305 21.9629 53.305C21.9629 53.305 37.427 38.7077 41.0197 31.7811Z" fill="#2E3447"/>
</svg>
